<svg id="visual" viewBox="0 0 900 600" width="900" height="600" xmlns="http://www.w3.org/2000/svg" xmlns:xlink="http://www.w3.org/1999/xlink" version="1.1"><rect x="0" y="0" width="900" height="600" fill="#fffbf0"></rect><path d="M0 355L129 357L257 412L386 372L514 401L643 374L771 395L900 371L900 601L771 601L643 601L514 601L386 601L257 601L129 601L0 601Z" fill="#ffe09c"></path><path d="M0 447L129 451L257 405L386 415L514 401L643 400L771 423L900 399L900 601L771 601L643 601L514 601L386 601L257 601L129 601L0 601Z" fill="#fcc87c"></path><path d="M0 459L129 470L257 440L386 480L514 477L643 469L771 485L900 442L900 601L771 601L643 601L514 601L386 601L257 601L129 601L0 601Z" fill="#faaf5f"></path><path d="M0 481L129 517L257 488L386 526L514 498L643 509L771 534L900 490L900 601L771 601L643 601L514 601L386 601L257 601L129 601L0 601Z" fill="#f99347"></path><path d="M0 549L129 535L257 530L386 537L514 565L643 566L771 525L900 570L900 601L771 601L643 601L514 601L386 601L257 601L129 601L0 601Z" fill="#f87437"></path></svg>